<svg xmlns="http://www.w3.org/2000/svg" width="256" height="100" viewBox="0 0 256 100" fill="none"><path d="M51.7461 77.176C66.4398 77.176 78.3515 64.9798 78.3515 49.9349C78.3515 34.8901 66.4398 22.6938 51.7461 22.6938C37.0524 22.6938 25.1406 34.8901 25.1406 49.9349C25.1406 64.9798 37.0524 77.176 51.7461 77.176Z" fill="white" fill-opacity="0.08"></path><path d="M213.979 59.7063H110.545C109.485 59.7063 108.617 60.5946 108.617 61.6803V67.5036C108.617 68.5893 109.485 69.4776 110.545 69.4776H213.979C215.039 69.4776 215.907 68.5893 215.907 67.5036V61.6803C215.907 60.5946 215.039 59.7063 213.979 59.7063Z" fill="#434343"></path><path d="M143.223 41.348H148.718C148.814 41.348 148.814 41.2493 148.814 41.2493V40.7558C148.814 40.6571 148.718 40.6571 148.718 40.6571H143.223V36.0183C143.223 35.9196 143.127 35.9196 143.127 35.9196C142.163 36.2157 141.199 36.5118 140.331 36.8079C140.235 36.8079 140.235 37.0053 140.235 37.104C140.235 37.6961 140.235 38.387 140.235 38.9792C140.235 39.5714 140.235 40.1636 140.235 40.7558H138.211C138.114 40.7558 138.018 40.8545 138.114 40.9532C138.211 41.0519 138.307 41.2493 138.403 41.348L138.5 41.4467H140.235C140.235 41.6441 140.235 41.7428 140.235 41.8415C140.235 45.296 140.235 48.7505 140.235 52.3037C140.235 52.7972 140.235 53.3894 140.331 53.8829C140.62 55.5608 141.392 56.8439 142.934 57.5348C144.284 58.127 145.633 58.127 147.079 57.6335C147.947 57.3374 148.814 56.7452 149.489 56.0543C149.393 55.8569 149.2 55.7582 149.103 55.5608C149.007 55.6595 148.911 55.7582 148.814 55.7582C148.236 56.2517 147.561 56.6465 146.886 56.8439C145.344 57.2387 144.091 56.6465 143.705 55.0673C143.512 54.3764 143.416 53.6855 143.416 52.8959L143.223 41.348Z" fill="#434343"></path><path d="M153.925 44.3091C153.925 44.2104 154.022 44.2104 154.022 44.1117C154.889 42.2364 156.335 41.1507 158.263 40.7559C159.613 40.4598 160.962 40.5585 162.216 41.2494C163.469 41.9403 164.143 43.1247 164.336 44.5065C164.433 44.9013 164.433 45.3947 164.433 45.8882C164.433 49.0466 164.433 52.3037 164.433 55.4621C164.433 55.7582 164.433 56.0543 164.529 56.3504C164.722 57.2387 165.686 57.5348 166.361 56.9426C166.746 56.6465 166.843 56.3504 167.035 56.0543H167.132C167.132 56.0543 167.228 56.153 167.325 56.153C167.325 56.153 167.421 56.2517 167.325 56.2517C167.132 56.7452 166.939 57.2387 166.361 57.7322C165.204 58.5218 163.951 58.6205 162.698 58.0283C161.637 57.5348 161.348 56.5478 161.348 55.3634C161.348 54.179 161.348 52.9946 161.348 51.8102C161.348 49.8362 161.348 47.8622 161.348 45.8882C161.348 45.0987 161.252 44.3091 160.962 43.5195C160.288 41.9403 158.745 41.2494 157.01 41.9403C155.468 42.5325 154.697 43.7169 154.311 45.296C154.215 45.7895 154.118 46.3817 154.118 46.9739C154.118 50.0336 154.118 53.0933 154.118 56.153C154.118 56.2517 154.118 56.3504 154.118 56.5478C154.215 57.0413 154.311 57.2387 154.793 57.3374C155.275 57.4361 155.661 57.4361 156.143 57.5348V57.9296H148.913V57.4361C149.202 57.4361 149.491 57.4361 149.78 57.3374C149.973 57.3374 150.166 57.3374 150.262 57.2387C150.744 57.14 150.841 56.8439 150.937 56.4491C150.937 56.3504 150.937 56.2517 150.937 56.153C150.937 49.244 150.937 42.4338 150.937 35.5248C150.937 35.4261 150.937 35.3274 150.937 35.2287C150.937 34.7352 150.744 34.5378 150.359 34.4391C149.973 34.3404 149.588 34.3404 149.202 34.2417C149.106 34.2417 149.106 34.2417 149.009 34.2417C148.913 34.2417 148.816 34.143 148.816 34.0443V33.8469C148.816 33.7482 148.913 33.6495 149.009 33.6495C150.552 33.4521 152.094 33.3534 153.733 33.156C153.829 33.156 153.925 33.2547 153.925 33.3534V44.3091Z" fill="#434343"></path><path d="M119.608 42.3346C120.668 41.8411 121.729 41.1502 122.693 40.2619C122.789 40.1632 122.982 40.2619 122.982 40.3606C122.982 45.1969 122.982 49.9345 122.982 54.7709C122.982 55.067 122.982 55.363 123.078 55.6591C123.271 56.6461 124.235 57.0409 124.91 56.35C125.199 56.1526 125.295 55.8565 125.585 55.5604C125.681 55.4617 125.777 55.4618 125.874 55.4618C125.97 55.4618 125.97 55.5604 125.874 55.8565C125.488 56.9422 124.428 57.6332 123.271 57.7319C121.729 57.8306 120.572 56.9423 120.283 55.2644C120.186 54.8696 120.186 54.3761 120.09 53.9813C120.09 54.08 119.994 54.1787 119.994 54.2774C119.126 56.1527 117.776 57.3371 115.752 57.7319C113.246 58.2254 110.45 57.041 109.101 54.7709C107.944 52.8956 107.558 50.8228 107.655 48.6514C107.751 47.0722 108.04 45.493 108.715 44.1112C110.354 40.7554 114.017 39.2749 117.294 40.6567C118.162 40.9528 118.837 41.545 119.415 42.2359C119.512 42.1372 119.608 42.2359 119.608 42.3346ZM119.897 48.0592C119.897 47.1709 119.897 46.1839 119.897 45.2956C119.897 44.9995 119.897 44.6047 119.801 44.3086C119.415 42.532 117.873 41.0515 116.041 40.8541C114.403 40.6567 113.053 41.1502 112.185 42.6307C111.703 43.4203 111.414 44.3086 111.318 45.1969C110.932 47.3683 110.932 49.5397 111.125 51.7111C111.318 52.9942 111.511 54.1787 112.185 55.2644C112.667 56.1527 113.342 56.8435 114.306 57.1396C115.752 57.5344 116.909 57.0409 117.969 56.0539C119.126 54.8695 119.704 53.389 119.801 51.7111C119.897 50.3293 119.897 49.2436 119.897 48.0592Z" fill="#434343"></path><path d="M95.0264 48.7503C95.2192 50.9216 95.6048 52.9943 96.8579 54.6722C97.9183 56.1527 99.4606 56.6462 101.099 56.6462C103.317 56.6462 105.148 55.6592 106.401 53.7839C106.498 53.6852 106.594 53.6852 106.69 53.7839C106.787 53.7839 106.787 53.8826 106.883 53.8826C106.98 53.9813 106.98 54.08 106.883 54.08C106.208 55.1657 105.341 56.1527 104.184 56.7449C100.617 58.8176 95.7976 57.8306 93.1949 54.5735C91.7489 52.6982 91.0742 50.6255 90.8814 48.2568C90.785 45.888 91.1706 43.6179 92.3273 41.5452C93.9661 38.8803 96.2796 37.3998 99.3643 37.005C101.099 36.8076 102.835 37.005 104.473 37.8933C106.208 38.7816 107.076 40.3608 106.98 42.3348C106.883 43.7166 106.112 44.8023 105.052 45.5919C103.702 46.6776 102.16 47.1711 100.521 47.6646C98.7859 48.1581 97.0507 48.4542 95.2192 48.6516C95.3156 48.7503 95.2192 48.7503 95.0264 48.7503ZM95.0264 47.9607C95.5084 47.862 95.9904 47.7633 96.4724 47.7633C98.0147 47.4672 99.4607 47.0724 100.907 46.3815C103.027 45.2958 103.895 43.6179 103.702 41.2491C103.509 38.6829 101.485 37.3011 99.0751 37.8933C97.6291 38.2881 96.7616 39.3738 96.0868 40.6569C95.412 42.1374 95.1228 43.8153 95.0264 45.3945C95.0264 46.2828 95.0264 47.0724 95.0264 47.9607Z" fill="#434343"></path><path d="M125.682 41.3483V41.1509C125.682 41.0522 125.779 41.0522 125.779 40.9535L130.406 40.46C130.502 40.46 130.599 40.5587 130.599 40.6574V44.8027C130.791 44.3092 131.081 43.6183 131.37 43.0261C132.43 41.0522 134.551 40.0652 136.575 40.7561C137.539 41.0522 138.214 41.7431 138.407 42.8288C138.599 43.9144 138.407 44.9014 137.539 45.5923C137.154 45.8884 136.672 46.0858 136.093 46.0858C135.9 46.0858 135.708 45.9871 135.708 45.7897C135.611 45.0988 135.611 44.4079 135.418 43.717C135.226 43.0261 134.936 42.3353 134.069 42.2366C133.201 42.0392 132.526 42.434 132.044 43.1248C131.466 43.9144 131.177 44.9014 130.984 45.8884C130.888 46.7767 130.791 47.7637 130.791 48.652C130.791 51.2182 130.791 53.6857 130.791 56.2519C130.791 56.8441 130.984 57.1402 131.466 57.2389C132.141 57.3376 132.912 57.4363 133.587 57.4363C133.78 57.4363 134.069 57.4363 134.262 57.4363C134.358 57.4363 134.454 57.535 134.454 57.6337V57.7324C134.454 57.8311 134.358 57.9298 134.262 57.9298H125.682C125.586 57.9298 125.586 57.8311 125.586 57.8311V57.6337C125.586 57.535 125.682 57.535 125.682 57.535C125.972 57.535 126.261 57.535 126.55 57.4363C127.417 57.3376 127.61 57.0415 127.61 56.2519C127.61 51.9091 127.61 47.4676 127.61 43.1248C127.61 42.2366 127.321 41.9405 126.454 41.8418C126.164 41.8418 125.875 41.8418 125.586 41.7431C125.682 41.5457 125.682 41.447 125.682 41.3483Z" fill="#434343"></path><path d="M197.687 57.5347V57.6334C197.687 57.7321 197.59 57.8308 197.494 57.8308H190.65C190.553 57.8308 190.457 57.7321 190.457 57.6334V57.5347C190.457 57.436 190.553 57.3373 190.65 57.3373C190.939 57.3373 191.228 57.3373 191.517 57.2386C192.289 57.1399 192.578 56.8438 192.578 56.0542C192.578 52.4023 192.578 48.7504 192.578 44.9998C192.578 44.3089 192.578 43.5193 192.578 42.8284C192.578 42.1375 192.385 41.9401 191.71 41.7427C191.421 41.644 191.035 41.644 190.65 41.644C190.553 41.644 190.457 41.5453 190.457 41.4466V41.2492C190.457 41.1505 190.553 41.0518 190.65 41.0518C192.192 40.9531 193.735 40.7557 195.277 40.5583C195.373 40.5583 195.47 40.657 195.47 40.7557C195.47 41.9401 195.373 43.0258 195.373 44.1115C195.662 43.618 195.855 43.1245 196.241 42.631C197.205 41.3479 198.458 40.7557 200 40.5583C201.253 40.3609 202.41 40.4596 203.471 41.0518C204.82 41.7427 205.495 42.9271 205.688 44.4076C205.784 44.8024 205.784 45.1972 205.784 45.592C205.784 48.7504 205.784 51.9088 205.784 55.0672C205.784 55.3633 205.784 55.5607 205.88 55.8568C206.073 56.8438 207.037 57.2386 207.712 56.5477C208.001 56.3503 208.098 56.0542 208.387 55.7581C208.483 55.6594 208.58 55.6594 208.676 55.7581C208.772 55.8568 208.772 55.9555 208.676 56.1529C208.387 56.8438 207.905 57.436 207.23 57.7321C206.362 58.1269 205.591 58.1269 204.724 57.9295C203.567 57.5347 202.796 56.5477 202.796 55.1659C202.796 52.4023 202.796 49.6387 202.796 46.7764C202.796 46.0855 202.796 45.3946 202.699 44.7037C202.603 43.9141 202.41 43.1245 201.832 42.4336C201.061 41.5453 199.711 41.2492 198.554 41.7427C197.012 42.4336 196.144 43.7167 195.855 45.2959C195.759 45.6907 195.759 46.1842 195.759 46.6777C195.759 49.7374 195.759 52.6984 195.759 55.7581C195.759 56.6464 196.048 56.9425 196.819 56.9425C197.108 56.9425 197.301 56.9425 197.59 57.0412C197.59 57.3373 197.687 57.436 197.687 57.5347Z" fill="#434343"></path><path d="M210.993 50.2306C211.089 50.9215 211.186 51.5137 211.282 52.2046C211.475 53.1916 211.861 54.1786 212.439 55.0669C213.307 56.35 214.656 56.9422 216.199 56.9422C218.126 56.9422 219.572 56.0539 220.729 54.4747C220.826 54.376 220.922 54.376 221.018 54.4747L221.115 54.5734C221.211 54.6721 221.211 54.7708 221.115 54.8695C220.826 55.2643 220.536 55.6591 220.247 55.9552C218.801 57.5344 216.873 58.0279 214.849 57.9292C212.921 57.8305 211.186 57.0409 209.933 55.5604C208.68 54.1786 208.005 52.5007 207.812 50.6254C207.619 48.8489 207.716 47.0723 208.487 45.3944C209.74 42.5321 211.861 40.8542 214.945 40.4594C216.391 40.262 217.837 40.4594 219.187 41.1503C220.729 41.9399 221.404 43.223 221.308 44.9009C221.211 46.0853 220.536 46.9736 219.669 47.6645C218.512 48.5528 217.259 49.0463 215.909 49.441C214.463 49.8358 213.017 50.0332 211.475 50.2306C211.282 50.2306 211.186 50.2306 210.993 50.2306ZM210.993 49.5397C211.475 49.441 211.861 49.4411 212.246 49.3424C213.596 49.145 214.849 48.7502 216.006 48.158C217.837 47.171 218.608 45.4931 218.223 43.4204C217.934 42.0386 217.162 41.1503 216.006 40.9529C214.463 40.6568 213.114 41.3477 212.246 42.8282C211.668 43.8152 211.379 44.9009 211.186 45.9866C210.993 47.171 210.993 48.3554 210.993 49.5397Z" fill="#434343"></path><path d="M231.139 45.4932C230.946 45.4932 230.85 45.3945 230.85 45.1971C230.85 44.8023 230.753 44.4075 230.657 44.0127C230.56 43.2231 230.271 42.5322 229.693 41.94C228.729 41.0517 227.572 40.953 226.415 41.3478C225.259 41.7426 224.68 42.6309 224.584 43.914C224.584 44.901 224.969 45.5919 225.644 46.1841C226.415 46.7763 227.283 47.1711 228.15 47.5659C229.307 48.1581 230.56 48.6516 231.621 49.4412C232.585 50.2307 233.259 51.119 233.452 52.4021C233.741 54.3761 232.681 56.1527 230.946 57.041C229.5 57.7319 228.054 57.9293 226.512 57.8306C225.355 57.7319 224.295 57.5345 223.331 56.9423C222.559 56.4488 221.981 55.8566 221.788 54.9683C221.595 53.9813 222.077 53.093 222.945 52.6982C223.331 52.5008 223.716 52.5008 224.005 52.4021C224.198 52.4021 224.295 52.5008 224.295 52.5995C224.391 53.5865 224.584 54.5735 225.066 55.3631C226.03 57.2384 228.632 57.7319 230.175 56.3501C231.042 55.6592 231.235 54.2774 230.85 53.1917C230.464 52.3034 229.886 51.7112 229.114 51.2177C228.343 50.7242 227.572 50.3294 226.801 49.9346C225.837 49.4412 224.873 49.0464 224.005 48.3555C222.077 46.875 221.692 44.4075 223.041 42.4335C223.716 41.4465 224.68 40.8543 225.837 40.5582C227.668 40.0647 229.404 40.1634 231.139 40.8543C231.91 41.1504 232.585 41.6439 232.874 42.5322C233.452 44.1114 232.585 45.4932 231.139 45.4932Z" fill="#434343"></path><path d="M176.965 55.6594C177.061 55.7581 177.061 55.7581 177.158 55.8568C177.254 55.9555 177.254 56.0542 177.158 56.1529C176.386 56.8438 175.519 57.6334 174.555 57.9295C173.109 58.423 171.759 58.423 170.313 57.8308C168.675 57.1399 167.903 55.7581 167.614 54.0802C167.518 53.5867 167.518 52.9945 167.518 52.501C167.518 48.9478 167.518 41.9401 167.518 38.3869C167.518 38.2882 167.518 38.1895 167.518 37.9922H165.494C165.397 37.9922 165.301 37.8935 165.301 37.7948V37.4987C165.301 37.4 165.397 37.3013 165.494 37.3013H167.518C167.518 37.2026 167.518 37.0052 167.518 36.9065C167.518 35.8208 167.518 34.7351 167.518 33.6494C167.518 33.3533 167.614 33.3533 167.807 33.2546C168.675 32.9585 169.542 32.6624 170.41 32.3663C170.506 32.3663 170.603 32.2676 170.699 32.2676V37.2026H176.29C176.386 37.2026 176.483 37.3013 176.483 37.4V37.6961C176.483 37.7948 176.386 37.8935 176.29 37.8935H170.795C170.795 37.9922 170.795 37.9922 170.795 38.0909C170.795 42.0388 170.795 49.4413 170.795 53.2906C170.795 53.9815 170.892 54.6724 171.085 55.3633C171.567 57.0412 172.723 57.6334 174.362 57.2386C175.133 57.0412 176.001 56.3503 176.579 55.8568L176.676 55.7581C176.772 55.5607 176.868 55.5607 176.965 55.6594Z" fill="#434343"></path><path d="M190.459 45.0001C189.206 42.1379 186.41 40.46 183.422 40.46C180.434 40.46 177.638 42.2366 176.385 45.0001C175.614 46.7767 175.325 48.652 175.614 50.5273C175.807 52.1065 176.385 53.587 177.349 54.8701C178.699 56.6467 180.53 57.6337 182.747 57.8311C182.94 57.8311 183.229 57.8311 183.422 57.8311C183.615 57.8311 183.904 57.8311 184.097 57.8311C186.314 57.6337 188.145 56.6467 189.495 54.8701C190.459 53.587 191.037 52.1065 191.23 50.5273C191.519 48.652 191.327 46.7767 190.459 45.0001ZM187.856 52.3039C187.663 53.587 187.181 54.8701 186.41 55.8571C185.639 56.7454 184.579 57.2389 183.518 57.3376C182.458 57.3376 181.301 56.8441 180.627 55.8571C179.759 54.7714 179.373 53.587 179.181 52.3039C178.795 50.1325 178.795 47.9611 179.181 45.7897C179.373 44.6053 179.855 43.4209 180.627 42.434C181.398 41.447 182.458 40.9535 183.615 40.9535C184.675 40.9535 185.832 41.447 186.603 42.434C187.374 43.4209 187.76 44.6053 188.049 45.7897C188.242 47.9611 188.242 50.1325 187.856 52.3039Z" fill="#434343"></path><path d="M51.7442 78.8538C36.128 78.8538 23.5 65.8255 23.5 49.9348C23.5 34.0442 36.128 21.0159 51.7442 21.0159C67.3605 21.0159 79.9884 34.0442 79.9884 49.9348C79.9884 65.8255 67.3605 78.8538 51.7442 78.8538ZM51.7442 24.0756C37.7667 24.0756 26.4883 35.7221 26.4883 49.9348C26.4883 64.1476 37.8631 75.7941 51.7442 75.7941C65.7217 75.7941 77.0001 64.1476 77.0001 49.9348C77.0001 35.7221 65.7217 24.0756 51.7442 24.0756Z" fill="#434343"></path><path d="M73.2435 37.6966C69.7732 37.4005 69.484 34.5382 65.4354 34.0447C61.6759 33.5512 59.0732 37.1044 58.3984 38.0914C58.3984 38.0914 58.3984 38.1901 58.4948 38.1901L59.0732 37.9927C59.9408 37.6966 60.8083 37.4992 61.6759 37.3018C62.5435 37.2031 63.411 37.2031 64.1822 37.3018C64.5678 37.4005 64.9534 37.4992 65.2426 37.5979C65.6282 37.6966 65.9174 37.894 66.2066 37.9927C66.8813 38.2888 67.4597 38.4862 68.2309 38.5849C68.8093 38.6836 69.0985 38.7823 69.6768 38.6836C69.7732 38.6836 69.7732 38.7823 69.6768 38.7823C69.0985 38.881 68.6165 38.9797 68.1345 38.9797C67.3633 38.9797 66.5921 38.7823 65.9173 38.5849C65.5318 38.4862 65.2426 38.3875 64.857 38.2888C64.4714 38.1901 64.1822 38.1901 63.7966 38.0914C63.0255 37.9927 62.6399 38.0914 61.8687 38.1901C61.0975 38.3875 60.3264 38.5849 59.5552 38.881L58.9768 39.1771C58.784 39.2758 58.5912 39.3745 58.3984 39.4732C58.0128 39.6706 57.82 39.7693 57.4345 39.9667C57.3381 40.0654 57.4345 40.1641 57.5309 40.1641C60.5192 39.868 60.712 44.0133 65.821 43.125C70.1588 42.4341 72.6651 38.881 73.3399 37.6966C73.3399 37.7953 73.3399 37.6966 73.2435 37.6966Z" fill="#434343"></path><path d="M35.3569 35.2287C39.0199 35.0313 39.5019 32.0703 43.7434 31.7742C47.792 31.4782 50.2983 35.3274 50.9731 36.4131C50.9731 36.4131 50.9731 36.5118 50.8767 36.5118L50.2019 36.2157C49.3344 35.9196 48.3704 35.6235 47.5028 35.4261C46.6353 35.2287 45.6713 35.2287 44.9001 35.3274C44.5145 35.4261 44.1289 35.4261 43.7434 35.5248C43.3578 35.6235 43.0686 35.7222 42.683 35.9196C42.0082 36.2157 41.3334 36.4131 40.5623 36.5118C39.9839 36.6105 39.6947 36.7092 39.0199 36.6105C38.9235 36.6105 38.9235 36.7092 39.0199 36.7092C39.5983 36.9066 40.1767 37.0053 40.7551 37.0053C41.6226 37.0053 42.3938 36.8079 43.0686 36.7092C43.4542 36.6105 43.8398 36.5118 44.129 36.5118C44.5145 36.4131 44.9001 36.4131 45.2857 36.4131C46.0569 36.4131 46.5389 36.4131 47.31 36.6105C48.0812 36.8079 48.8524 37.104 49.7199 37.4988L50.2983 37.7949C50.4911 37.8936 50.6839 37.9923 50.8767 38.091C51.2623 38.2884 51.4551 38.4858 51.8407 38.6832C51.9371 38.7819 51.8407 38.8806 51.7443 38.8806C48.6596 38.4858 48.274 42.8286 42.8758 41.6442C38.2488 40.6572 35.8388 36.8079 35.1641 35.5248C35.1641 35.3274 35.2605 35.2287 35.3569 35.2287Z" fill="#434343"></path><path d="M52.1289 37.3997C52.1289 42.8282 52.1289 53.5864 52.1289 59.0149C52.1289 59.8045 52.1289 60.6928 52.3217 61.4824C52.7073 64.1473 53.9604 66.22 56.4668 67.207C58.5875 68.0953 60.7082 68.0953 62.9253 67.4044C64.2749 66.9109 65.7208 65.9239 66.8776 64.7395C66.974 64.6408 66.974 64.4434 66.8776 64.3447L66.5884 64.0486C66.492 63.9499 66.2992 63.9499 66.2028 64.0486C66.1064 64.1473 66.1064 64.1473 66.01 64.246C65.1424 65.0356 63.6965 66.0226 62.5397 66.3187C60.0334 67.0096 58.2019 66.0226 57.5271 63.4564C57.2379 62.4694 57.1415 61.285 57.1415 60.1993C57.0451 54.1786 57.1415 42.9269 57.1415 37.0049V28.418C57.1415 28.2206 56.9487 28.1219 56.8523 28.2206H56.7559C55.4064 28.6154 53.9604 29.2076 52.7073 29.6024C52.3217 29.7011 52.2253 29.7998 52.2253 30.1946L52.1289 37.3997Z" fill="#434343"></path><path d="M50.1062 62.6674C50.0098 62.5687 49.817 62.3713 49.7206 62.2726C49.5278 62.1739 49.335 62.1739 49.2386 62.2726C49.1422 62.3713 48.9494 62.6674 48.9494 62.6674C47.4071 64.7401 45.5755 65.7271 42.8764 65.7271C40.7557 65.8258 39.0206 65.2336 37.9602 63.5557C36.6107 61.2856 36.7071 58.4233 36.8035 56.9428C36.8035 56.9428 36.8035 56.8441 36.8035 56.7454C35.6467 56.3506 34.6827 55.8571 33.9116 55.2649C32.8512 54.574 31.8872 53.9818 30.7305 54.0805V54.1792C30.7305 54.4753 30.7305 54.7714 30.7305 54.7714C30.7305 55.3636 30.7305 55.9558 30.7305 56.548C30.9233 59.4103 31.7909 61.8778 33.526 64.1479C36.6107 67.9971 42.4909 69.0828 46.7323 66.6153C48.0819 65.8257 49.2386 64.5427 50.1062 63.1609C50.299 62.9635 50.299 62.8648 50.1062 62.6674Z" fill="#434343"></path><path d="M49.3337 48.2573C45.2851 47.6651 45.0923 45.1976 39.9833 45.0989C35.6454 45.0002 32.1751 49.1456 30.8256 51.2183L31.6932 50.8235C32.7535 50.33 33.9103 50.0339 35.067 49.8365C36.2238 49.5404 37.2842 49.4417 38.3445 49.5404C38.8265 49.5404 39.3085 49.6391 39.7905 49.7378C40.2725 49.8365 40.7544 49.9352 41.14 50.1326C42.0076 50.4287 42.4896 50.6261 43.4535 50.8235C44.3211 51.0209 44.9959 51.0209 46.0563 50.7248C46.1527 50.7248 46.1527 50.8235 46.0563 50.8235C45.2851 51.1196 44.5139 51.317 43.7427 51.317C42.6824 51.4157 41.7184 51.2183 40.7544 51.0209C40.2725 50.9222 39.7905 50.8235 39.3085 50.8235C38.8265 50.8235 38.3445 50.7248 37.8626 50.7248C36.8986 50.7248 36.3202 50.8235 35.3562 51.1196C32.4643 52.1066 31.0184 53.291 30.6328 53.5871C34.0067 53.5871 35.549 57.8311 41.9112 56.3506C41.9112 56.3506 48.3698 55.0676 49.4301 48.6521C49.5265 48.5534 49.5265 48.356 49.3337 48.2573Z" fill="#434343"></path><path d="M120.281 61.9761H121.149V66.4176H123.848V67.2071H120.281V61.9761Z" fill="#0A0A0A"></path><path d="M129.44 61.9761H130.307L132.621 67.3059H131.657L131.175 66.0228H128.765L128.187 67.3059H127.223L129.44 61.9761ZM130.789 65.2332L129.922 63.1605L129.054 65.2332H130.789Z" fill="#0A0A0A"></path><path d="M136.285 61.9761H137.153L139.948 65.628V61.9761H140.816V67.3059H140.045L137.249 63.5553V67.3059H136.382V61.9761H136.285Z" fill="#0A0A0A"></path><path d="M144.961 61.9761H146.889C147.274 61.9761 147.66 62.0748 148.046 62.1735C148.335 62.2722 148.72 62.4696 148.913 62.7657C149.202 62.9631 149.299 63.2592 149.492 63.5553C149.588 63.8514 149.684 64.2462 149.684 64.641C149.684 65.0358 149.588 65.3319 149.492 65.7267C149.395 66.0228 149.202 66.3189 148.913 66.5163C148.624 66.7137 148.335 66.9111 148.046 67.1085C147.756 67.2072 147.371 67.3059 146.889 67.3059H144.961V61.9761ZM146.889 66.4176C147.178 66.4176 147.371 66.4176 147.66 66.3189C147.853 66.2202 148.046 66.1215 148.238 65.9241C148.431 65.7267 148.528 65.5293 148.624 65.3319C148.72 65.1345 148.72 64.8384 148.72 64.641C148.72 64.3449 148.72 64.1475 148.624 63.9501C148.528 63.7527 148.431 63.5553 148.238 63.3579C148.046 63.1605 147.853 63.0618 147.66 62.9631C147.467 62.8644 147.178 62.8644 146.889 62.8644H145.829V66.4176H146.889Z" fill="#0A0A0A"></path><path d="M155.371 67.4047C154.985 67.4047 154.6 67.306 154.214 67.2073C153.828 67.1086 153.539 66.8125 153.25 66.6151L153.828 65.9242C154.118 66.1216 154.31 66.319 154.6 66.4177C154.889 66.5164 155.178 66.6151 155.467 66.6151C155.756 66.6151 155.949 66.5164 156.142 66.4177C156.335 66.319 156.431 66.1216 156.431 65.9242C156.431 65.8255 156.431 65.7268 156.431 65.6281C156.431 65.5294 156.335 65.5294 156.238 65.4307C156.142 65.332 156.046 65.332 155.853 65.2333C155.66 65.1346 155.467 65.1346 155.274 65.0359C154.985 64.9372 154.792 64.9372 154.503 64.8385C154.31 64.7398 154.118 64.6411 153.925 64.5424C153.732 64.4437 153.636 64.2463 153.636 64.1476C153.539 63.9502 153.539 63.7528 153.539 63.5554C153.539 63.358 153.539 63.1606 153.636 62.9632C153.732 62.7658 153.828 62.5684 154.021 62.4697C154.214 62.371 154.407 62.2723 154.6 62.1736C154.792 62.0749 155.082 62.075 155.274 62.075C155.66 62.075 155.949 62.1736 156.335 62.2723C156.624 62.371 156.913 62.5684 157.202 62.7658L156.72 63.4567C156.527 63.2593 156.238 63.1606 156.045 63.0619C155.853 62.9632 155.564 62.9632 155.371 62.9632C155.082 62.9632 154.889 63.0619 154.792 63.1606C154.6 63.2593 154.6 63.4567 154.6 63.6541C154.6 63.7528 154.6 63.8515 154.696 63.9502C154.696 64.0489 154.792 64.1476 154.889 64.1476C154.985 64.2463 155.082 64.2463 155.274 64.345C155.467 64.4437 155.66 64.4437 155.853 64.5424C156.142 64.6411 156.335 64.7398 156.527 64.7398C156.72 64.8385 156.913 64.9372 157.009 65.0359C157.106 65.1346 157.299 65.332 157.299 65.4307C157.395 65.6281 157.395 65.8255 157.395 66.0229C157.395 66.2203 157.395 66.5164 157.299 66.7138C157.202 66.9112 157.106 67.1086 156.913 67.2073C156.72 67.306 156.527 67.4047 156.335 67.5034C155.853 67.306 155.66 67.4047 155.371 67.4047Z" fill="#0A0A0A"></path><path d="M163.469 67.4047C163.083 67.4047 162.697 67.306 162.408 67.2073C162.119 67.1086 161.83 66.9112 161.541 66.6151C161.348 66.4177 161.155 66.1216 160.962 65.7268C160.866 65.4307 160.77 65.036 160.77 64.6412C160.77 64.2464 160.866 63.9503 160.962 63.5555C161.059 63.2594 161.252 62.9633 161.541 62.6672C161.733 62.3711 162.023 62.1737 162.408 62.075C162.697 61.9763 163.083 61.8776 163.469 61.8776C163.661 61.8776 163.951 61.8776 164.143 61.9763C164.336 61.9763 164.529 62.075 164.722 62.1737C164.915 62.2724 165.011 62.3711 165.204 62.4698C165.3 62.5685 165.493 62.6672 165.589 62.7659L165.011 63.4568C164.818 63.2594 164.625 63.062 164.336 62.9633C164.143 62.8646 163.854 62.7659 163.565 62.7659C163.276 62.7659 163.083 62.7659 162.89 62.8646C162.697 62.9633 162.505 63.062 162.312 63.2594C162.119 63.4568 162.023 63.6542 161.926 63.8516C161.83 64.049 161.83 64.3451 161.83 64.5425C161.83 64.8386 161.83 65.036 161.926 65.2334C162.023 65.4307 162.119 65.6281 162.312 65.8255C162.505 66.0229 162.601 66.1216 162.89 66.2203C163.083 66.319 163.372 66.319 163.565 66.319C163.854 66.319 164.143 66.2203 164.336 66.1216C164.529 66.0229 164.818 65.8255 165.011 65.6281L165.589 66.2203C165.493 66.319 165.3 66.5164 165.204 66.6151C165.011 66.7138 164.915 66.8125 164.722 66.9112C164.529 67.0099 164.336 67.0099 164.143 67.1086C163.951 67.4047 163.758 67.4047 163.469 67.4047Z" fill="#0A0A0A"></path><path d="M171.182 61.9761H172.05L174.363 67.3059H173.399L172.917 66.0228H170.507L169.929 67.3059H168.965L171.182 61.9761ZM172.531 65.2332L171.664 63.1605L170.796 65.2332H172.531Z" fill="#0A0A0A"></path><path d="M178.023 61.9761H180.048C180.337 61.9761 180.626 61.9761 180.819 62.0748C181.108 62.1735 181.301 62.2722 181.397 62.4696C181.59 62.667 181.687 62.7657 181.783 63.0618C181.879 63.2592 181.879 63.5553 181.879 63.7527C181.879 64.0488 181.783 64.3449 181.686 64.5423C181.59 64.7397 181.397 64.9371 181.205 65.1345C181.012 65.3319 180.819 65.4306 180.53 65.4306C180.241 65.5293 180.048 65.5293 179.759 65.5293H178.891V67.2071H178.023V61.9761ZM179.951 64.7397C180.337 64.7397 180.53 64.641 180.723 64.4436C180.915 64.2462 181.012 64.0488 181.012 63.7527C181.012 63.4566 180.915 63.1605 180.723 63.0618C180.53 62.8644 180.241 62.8644 179.951 62.8644H178.891V64.7397H179.951Z" fill="#0A0A0A"></path><path d="M185.832 61.9761H186.7V67.3059H185.832V61.9761Z" fill="#0A0A0A"></path><path d="M190.941 61.9761H191.809L194.604 65.628V61.9761H195.472V67.3059H194.701L191.905 63.5553V67.3059H191.038V61.9761H190.941Z" fill="#0A0A0A"></path><path d="M202.027 67.4047C201.642 67.4047 201.256 67.306 200.967 67.2073C200.678 67.1086 200.388 66.9112 200.099 66.6151C199.906 66.4177 199.714 66.1216 199.521 65.7268C199.425 65.4307 199.328 65.036 199.328 64.6412C199.328 64.2464 199.425 63.9503 199.521 63.5555C199.617 63.2594 199.81 62.9633 200.099 62.6672C200.292 62.3711 200.581 62.1737 200.967 62.075C201.256 61.9763 201.642 61.8776 202.027 61.8776C202.22 61.8776 202.413 61.8776 202.606 61.8776C202.798 61.8776 202.991 61.9763 203.088 61.9763C203.184 61.9763 203.377 62.075 203.57 62.1737C203.666 62.2724 203.859 62.3711 203.955 62.4698L203.377 63.1607C203.28 63.062 203.184 62.9633 203.088 62.9633C202.991 62.8646 202.895 62.8646 202.798 62.7659C202.702 62.7659 202.606 62.6672 202.413 62.6672C202.316 62.6672 202.124 62.6672 201.931 62.6672C201.738 62.6672 201.449 62.7659 201.256 62.8646C201.063 62.9633 200.87 63.062 200.678 63.2594C200.485 63.4568 200.388 63.6542 200.292 63.8516C200.196 64.049 200.196 64.3451 200.196 64.5425C200.196 64.8386 200.196 65.0359 200.292 65.332C200.388 65.5294 200.485 65.7268 200.678 65.9242C200.87 66.1216 201.063 66.2203 201.256 66.319C201.449 66.4177 201.738 66.4177 201.931 66.4177C202.22 66.4177 202.413 66.4177 202.606 66.319C202.798 66.2203 202.991 66.1216 203.184 66.0229V65.036H202.027V64.2464H204.244V66.4177C204.148 66.5164 203.955 66.6151 203.859 66.7138C203.666 66.8125 203.57 66.9112 203.377 67.0099C203.184 67.1086 202.991 67.1086 202.798 67.2073C202.509 67.4047 202.316 67.4047 202.027 67.4047Z" fill="#0A0A0A"></path></svg>