<svg xmlns="http://www.w3.org/2000/svg" width="234" height="100" viewBox="0 0 234 100" fill="none"><path d="M39.3469 47.6913C41.8149 33.5882 56.6552 23.652 56.6552 23.652C56.6552 23.652 72.0404 34.2293 73.9635 47.6913C75.9324 61.4739 67.2328 68.5254 56.6552 68.5254C46.0775 68.5254 37.1032 60.5123 39.3469 47.6913Z" stroke="#434343" stroke-width="3.43796"></path><path d="M56.6562 36.473V76.2181" stroke="#434343" stroke-width="3.43796" stroke-linecap="round"></path><path d="M49.9258 40.3192L56.6568 47.0502L63.3878 40.3192" stroke="#434343" stroke-width="3.43796" stroke-linecap="round"></path><path d="M46.0781 48.9735L56.6554 59.5508L67.2327 48.9735" stroke="#434343" stroke-width="3.43796" stroke-linecap="round"></path><path d="M83.0689 53.2432V51.1508L97.5618 33.1809L97.9002 34.3809H83.2843V31.7039H100.67V33.7963L86.2383 51.7662L85.869 50.5661H101.07V53.2432H83.0689ZM107.384 40.9966H118.462V43.612H107.384V40.9966ZM107.661 50.5661H120.216V53.2432H104.584V31.7039H119.785V34.3809H107.661V50.5661ZM127.352 41.8889H138.46V44.5352H127.352V41.8889ZM127.66 53.2432H124.583V31.7039H139.783V34.3809H127.66V53.2432ZM143.499 53.2432V31.7039H146.576V53.2432H143.499ZM152.409 53.2432V31.7039H160.81C162.697 31.7039 164.307 32.0014 165.641 32.5963C166.974 33.1911 168 34.0527 168.718 35.181C169.436 36.3092 169.795 37.6528 169.795 39.2119C169.795 40.7709 169.436 42.1145 168.718 43.2428C168 44.3505 166.974 45.2018 165.641 45.7967C164.307 46.3916 162.697 46.6891 160.81 46.6891H154.102L155.486 45.2736V53.2432H152.409ZM166.81 53.2432L161.333 45.4275H164.625L170.164 53.2432H166.81ZM155.486 45.5813L154.102 44.0736H160.717C162.687 44.0736 164.174 43.6531 165.179 42.812C166.205 41.9504 166.718 40.7504 166.718 39.2119C166.718 37.6734 166.205 36.4836 165.179 35.6425C164.174 34.8015 162.687 34.3809 160.717 34.3809H154.102L155.486 32.8424V45.5813ZM183.874 53.4893C182.233 53.4893 180.705 53.2124 179.289 52.6585C177.894 52.1047 176.684 51.3354 175.658 50.3508C174.633 49.3456 173.833 48.1763 173.258 46.8429C172.684 45.5095 172.397 44.0531 172.397 42.4735C172.397 40.894 172.684 39.4375 173.258 38.1041C173.833 36.7708 174.633 35.6117 175.658 34.6271C176.684 33.6219 177.894 32.8424 179.289 32.2885C180.684 31.7347 182.212 31.4577 183.874 31.4577C185.515 31.4577 187.023 31.7347 188.397 32.2885C189.792 32.8219 191.003 33.5912 192.028 34.5963C193.074 35.581 193.874 36.74 194.428 38.0734C195.003 39.4068 195.29 40.8735 195.29 42.4735C195.29 44.0736 195.003 45.5403 194.428 46.8737C193.874 48.2071 193.074 49.3764 192.028 50.3815C191.003 51.3662 189.792 52.1354 188.397 52.6893C187.023 53.2227 185.515 53.4893 183.874 53.4893ZM183.874 50.7508C185.064 50.7508 186.161 50.5456 187.166 50.1354C188.192 49.7251 189.074 49.1507 189.813 48.4122C190.572 47.6532 191.156 46.7711 191.567 45.766C191.997 44.7608 192.213 43.6633 192.213 42.4735C192.213 41.2837 191.997 40.1863 191.567 39.1811C191.156 38.1759 190.572 37.3041 189.813 36.5656C189.074 35.8066 188.192 35.222 187.166 34.8117C186.161 34.4014 185.064 34.1963 183.874 34.1963C182.664 34.1963 181.546 34.4014 180.52 34.8117C179.515 35.222 178.633 35.8066 177.874 36.5656C177.115 37.3041 176.52 38.1759 176.089 39.1811C175.679 40.1863 175.474 41.2837 175.474 42.4735C175.474 43.6633 175.679 44.7608 176.089 45.766C176.52 46.7711 177.115 47.6532 177.874 48.4122C178.633 49.1507 179.515 49.7251 180.52 50.1354C181.546 50.5456 182.664 50.7508 183.874 50.7508Z" fill="#434343"></path><path d="M84.2694 65.8945C84.878 65.8945 85.3771 65.9732 85.7669 66.1305C86.1635 66.2809 86.4575 66.51 86.649 66.8177C86.8404 67.1254 86.9362 67.5117 86.9362 67.9767C86.9362 68.3664 86.8644 68.6912 86.7208 68.9511C86.5772 69.2109 86.3926 69.4195 86.1669 69.5767C85.9481 69.7272 85.7156 69.8468 85.4694 69.9357L87.4798 73.2179H86.4028L84.6284 70.1921H83.1719V73.2179H82.2488V65.8945H84.2694ZM84.2181 66.6946H83.1719V69.4126H84.2694C84.666 69.4126 84.9908 69.3613 85.2438 69.2588C85.4968 69.1494 85.6814 68.9921 85.7977 68.787C85.9207 68.5818 85.9823 68.3254 85.9823 68.0177C85.9823 67.6963 85.9173 67.4399 85.7874 67.2484C85.6643 67.057 85.4729 66.9168 85.213 66.8279C84.9532 66.739 84.6216 66.6946 84.2181 66.6946ZM97.9527 73.2179H93.8602V65.8945H97.9527V66.7048H94.7833V68.9921H97.7681V69.7921H94.7833V72.4076H97.9527V73.2179ZM110.596 73.2179H109.519L105.601 67.1356H105.56C105.567 67.2587 105.573 67.3955 105.58 67.5459C105.594 67.6963 105.604 67.8604 105.611 68.0382C105.618 68.2092 105.625 68.3869 105.632 68.5716C105.638 68.7562 105.642 68.9408 105.642 69.1254V73.2179H104.791V65.8945H105.857L109.765 71.9563H109.806C109.799 71.8743 109.792 71.7614 109.786 71.6178C109.779 71.4674 109.772 71.3033 109.765 71.1255C109.758 70.9409 109.751 70.7528 109.745 70.5614C109.738 70.3699 109.734 70.1921 109.734 70.028V65.8945H110.596V73.2179ZM121.907 73.2179H117.814V65.8945H121.907V66.7048H118.737V68.9921H121.722V69.7921H118.737V72.4076H121.907V73.2179ZM137.155 65.8945L135.206 73.2179H134.273L132.847 68.4177C132.806 68.2741 132.765 68.1271 132.724 67.9767C132.683 67.8262 132.646 67.6826 132.611 67.5459C132.577 67.4091 132.546 67.2929 132.519 67.1972C132.498 67.0946 132.485 67.0194 132.478 66.9715C132.471 67.0194 132.457 67.0946 132.437 67.1972C132.423 67.2929 132.399 67.4091 132.365 67.5459C132.331 67.6826 132.293 67.8297 132.252 67.9869C132.218 68.1374 132.177 68.2912 132.129 68.4485L130.745 73.2179H129.811L127.873 65.8945H128.837L129.975 70.3665C130.016 70.5238 130.054 70.681 130.088 70.8383C130.122 70.9888 130.153 71.1392 130.18 71.2896C130.215 71.4332 130.242 71.5734 130.263 71.7101C130.283 71.8469 130.304 71.9802 130.324 72.1102C130.345 71.9734 130.365 71.8332 130.386 71.6896C130.413 71.546 130.444 71.399 130.478 71.2486C130.512 71.0913 130.55 70.9341 130.591 70.7768C130.632 70.6195 130.673 70.4657 130.714 70.3152L132.006 65.8945H132.96L134.304 70.346C134.352 70.5033 134.396 70.664 134.437 70.8281C134.478 70.9853 134.516 71.1392 134.55 71.2896C134.584 71.4401 134.611 71.5871 134.632 71.7307C134.659 71.8674 134.683 71.9939 134.704 72.1102C134.724 71.9392 134.752 71.7614 134.786 71.5768C134.82 71.3853 134.861 71.1871 134.909 70.9819C134.957 70.7768 135.008 70.5682 135.063 70.3563L136.191 65.8945H137.155ZM147.695 73.2179L146.813 70.9511H143.911L143.039 73.2179H142.106L144.967 65.8638H145.798L148.649 73.2179H147.695ZM145.716 67.9151C145.695 67.8604 145.661 67.7613 145.613 67.6177C145.565 67.4741 145.518 67.3271 145.47 67.1766C145.429 67.0194 145.395 66.8997 145.367 66.8177C145.333 66.9544 145.295 67.0946 145.254 67.2382C145.22 67.3749 145.183 67.5014 145.142 67.6177C145.107 67.7339 145.077 67.8331 145.049 67.9151L144.218 70.1306H146.536L145.716 67.9151ZM156.974 65.8945C157.583 65.8945 158.092 65.9527 158.503 66.0689C158.92 66.1852 159.231 66.3766 159.436 66.6433C159.648 66.91 159.754 67.2655 159.754 67.71C159.754 67.9972 159.699 68.2536 159.59 68.4793C159.487 68.6981 159.33 68.8827 159.118 69.0331C158.913 69.1767 158.66 69.2759 158.359 69.3306V69.3819C158.667 69.4297 158.944 69.5186 159.19 69.6485C159.443 69.7785 159.641 69.9631 159.785 70.2024C159.928 70.4417 160 70.7528 160 71.1358C160 71.5802 159.898 71.9597 159.693 72.2743C159.487 72.582 159.193 72.8179 158.81 72.982C158.434 73.1393 157.983 73.2179 157.457 73.2179H154.882V65.8945H156.974ZM157.159 69.0126C157.788 69.0126 158.219 68.9135 158.451 68.7152C158.684 68.51 158.8 68.2092 158.8 67.8126C158.8 67.4091 158.657 67.1219 158.369 66.951C158.089 66.7732 157.638 66.6843 157.016 66.6843H155.805V69.0126H157.159ZM155.805 69.7819V72.4384H157.282C157.932 72.4384 158.383 72.3119 158.636 72.0589C158.889 71.8059 159.016 71.4742 159.016 71.064C159.016 70.8041 158.957 70.5785 158.841 70.387C158.732 70.1956 158.544 70.0485 158.277 69.946C158.017 69.8366 157.662 69.7819 157.21 69.7819H155.805ZM166.784 73.2179V65.8945H167.707V72.3974H170.907V73.2179H166.784ZM181.486 73.2179H177.394V65.8945H181.486V66.7048H178.317V68.9921H181.302V69.7921H178.317V72.4076H181.486V73.2179ZM192.478 71.2588C192.478 71.6965 192.372 72.0691 192.16 72.3768C191.948 72.6777 191.644 72.9102 191.247 73.0743C190.857 73.2384 190.396 73.3205 189.863 73.3205C189.589 73.3205 189.326 73.3068 189.073 73.2794C188.827 73.2521 188.601 73.2145 188.396 73.1666C188.191 73.1119 188.009 73.0469 187.852 72.9717V72.0896C188.098 72.1991 188.403 72.2982 188.765 72.3871C189.134 72.476 189.514 72.5204 189.904 72.5204C190.266 72.5204 190.57 72.4726 190.816 72.3768C191.063 72.2811 191.247 72.1444 191.37 71.9666C191.493 71.7888 191.555 71.5802 191.555 71.3409C191.555 71.1016 191.504 70.8999 191.401 70.7358C191.298 70.5716 191.121 70.4212 190.868 70.2845C190.622 70.1409 190.276 69.9904 189.832 69.8332C189.517 69.7169 189.24 69.5938 189.001 69.4639C188.768 69.3272 188.574 69.1733 188.416 69.0024C188.259 68.8314 188.139 68.6365 188.057 68.4177C187.982 68.1989 187.945 67.9459 187.945 67.6587C187.945 67.269 188.044 66.9373 188.242 66.6638C188.44 66.3835 188.714 66.1681 189.063 66.0176C189.418 65.8672 189.825 65.792 190.283 65.792C190.687 65.792 191.056 65.8296 191.391 65.9048C191.726 65.98 192.03 66.0792 192.304 66.2023L192.016 66.992C191.763 66.8826 191.487 66.7903 191.186 66.7151C190.892 66.6399 190.584 66.6023 190.263 66.6023C189.955 66.6023 189.698 66.6467 189.493 66.7356C189.288 66.8245 189.134 66.951 189.032 67.1151C188.929 67.2724 188.878 67.457 188.878 67.669C188.878 67.9151 188.929 68.1203 189.032 68.2844C189.134 68.4485 189.302 68.5955 189.534 68.7254C189.767 68.8553 190.081 68.9955 190.478 69.146C190.909 69.3032 191.271 69.4742 191.565 69.6588C191.866 69.8366 192.092 70.052 192.242 70.305C192.399 70.558 192.478 70.8759 192.478 71.2588Z" fill="#434343"></path></svg>