<svg xmlns="http://www.w3.org/2000/svg" width="218" height="100" viewBox="0 0 218 100" fill="none"><path d="M44.5832 58.5916C44.5832 54.2812 46.3625 50.3795 49.2234 47.5705C47.6817 46.8648 45.9729 46.4612 44.1639 46.4612C37.446 46.4612 32 51.8924 32 58.5916C32 65.2913 37.446 70.7225 44.1639 70.7225C45.9729 70.7225 47.6812 70.3189 49.2234 69.6132C46.3625 66.8042 44.5832 62.9024 44.5832 58.5916Z" fill="#434343"></path><path d="M60.097 58.1735C55.7749 58.1735 51.8626 56.3991 49.0459 53.5444C48.3383 55.0834 47.9336 56.7876 47.9336 58.5917C47.9336 65.2913 53.3796 70.7226 60.097 70.7226C66.8149 70.7226 72.261 65.2913 72.261 58.5917C72.261 56.7876 71.8563 55.084 71.1486 53.5444C68.332 56.3991 64.4196 58.1735 60.097 58.1735Z" fill="#434343"></path><path d="M60.1 30.5654C58.2911 30.5654 56.5828 30.969 55.0391 31.6748C57.9015 34.4837 59.6808 38.3855 59.6808 42.6963C59.6808 47.0067 57.9015 50.9084 55.0391 53.7174C56.5823 54.4232 58.2911 54.8268 60.1 54.8268C66.8179 54.8268 72.264 49.3955 72.264 42.6963C72.264 35.9967 66.8179 30.5654 60.1 30.5654Z" fill="#434343"></path><path d="M44.1639 43.1144C48.486 43.1144 52.3984 44.8888 55.215 47.7419C55.9227 46.2044 56.3274 44.5003 56.3274 42.6962C56.3274 35.9965 50.8814 30.5653 44.1639 30.5653C37.446 30.5653 32 35.9965 32 42.6962C32 44.5003 32.4047 46.2039 33.1124 47.7419C35.929 44.8888 39.8414 43.1144 44.1639 43.1144Z" fill="#434343"></path><path d="M93.6406 45.7114C92.6729 43.9973 91.6258 42.3048 90.4992 40.6339C89.3726 38.963 88.1738 37.3858 86.9028 35.9022V45.7114H83.5664V30.7383H86.3179C86.7945 31.2136 87.3217 31.797 87.8994 32.4884C88.4771 33.1798 89.0657 33.918 89.6651 34.703C90.2645 35.488 90.8603 36.3019 91.4525 37.1445C92.0446 37.9871 92.6007 38.7974 93.1207 39.5752V30.7383H96.4787V45.7114H93.6406ZM112.799 45.7114C112.64 45.1928 112.463 44.6599 112.268 44.1125C112.073 43.5651 111.882 43.0178 111.694 42.4704H105.845C105.657 43.0178 105.465 43.5651 105.27 44.1125C105.075 44.6599 104.898 45.1928 104.74 45.7114H101.23C101.793 44.0981 102.328 42.6073 102.833 41.2389C103.339 39.8705 103.833 38.5813 104.317 37.3714C104.801 36.1614 105.278 35.0127 105.747 33.9252C106.216 32.8377 106.704 31.7754 107.209 30.7383H110.437C110.929 31.7754 111.412 32.8377 111.889 33.9252C112.366 35.0127 112.846 36.1614 113.33 37.3714C113.814 38.5813 114.308 39.8705 114.814 41.2389C115.319 42.6073 115.854 44.0981 116.417 45.7114H112.799ZM108.748 34.1304C108.675 34.3465 108.567 34.6418 108.423 35.0163C108.278 35.3908 108.112 35.8229 107.924 36.3127C107.737 36.8024 107.531 37.3426 107.307 37.9331C107.083 38.5237 106.856 39.1431 106.624 39.7913H110.892C110.661 39.1431 110.437 38.5237 110.221 37.9331C110.004 37.3426 109.798 36.8024 109.603 36.3127C109.408 35.8229 109.239 35.3908 109.094 35.0163C108.95 34.6418 108.834 34.3465 108.748 34.1304ZM125.566 30.5654C127.819 30.5654 129.545 30.9651 130.744 31.7646C131.943 32.564 132.542 33.8064 132.542 35.4916C132.542 36.5431 132.3 37.3966 131.816 38.052C131.333 38.7074 130.636 39.2223 129.726 39.5968C130.029 39.9713 130.347 40.3998 130.679 40.8824C131.011 41.3649 131.34 41.8691 131.665 42.3948C131.99 42.9206 132.304 43.4679 132.607 44.0369C132.911 44.6058 133.192 45.164 133.452 45.7114H129.661C129.386 45.2216 129.108 44.7247 128.827 44.2205C128.545 43.7164 128.256 43.2266 127.96 42.7513C127.664 42.276 127.372 41.8258 127.083 41.4009C126.794 40.976 126.505 40.5907 126.216 40.245H124.548V45.7114H121.168V30.9543C121.905 30.8103 122.667 30.7095 123.454 30.6519C124.241 30.5942 124.945 30.5654 125.566 30.5654ZM125.761 33.4391C125.516 33.4391 125.295 33.4463 125.1 33.4607C124.905 33.4751 124.721 33.4895 124.548 33.5039V37.5658H125.501C126.772 37.5658 127.682 37.4074 128.231 37.0905C128.78 36.7736 129.054 36.2334 129.054 35.47C129.054 34.7354 128.776 34.2133 128.22 33.9036C127.664 33.5939 126.844 33.4391 125.761 33.4391ZM148.473 45.7114C148.314 45.1928 148.137 44.6599 147.942 44.1125C147.747 43.5651 147.555 43.0178 147.368 42.4704H141.518C141.33 43.0178 141.139 43.5651 140.944 44.1125C140.749 44.6599 140.572 45.1928 140.413 45.7114H136.903C137.467 44.0981 138.001 42.6073 138.507 41.2389C139.012 39.8705 139.507 38.5813 139.991 37.3714C140.475 36.1614 140.951 35.0127 141.421 33.9252C141.89 32.8377 142.377 31.7754 142.883 30.7383H146.111C146.602 31.7754 147.086 32.8377 147.563 33.9252C148.039 35.0127 148.519 36.1614 149.003 37.3714C149.487 38.5813 149.982 39.8705 150.487 41.2389C150.993 42.6073 151.527 44.0981 152.091 45.7114H148.473ZM144.421 34.1304C144.349 34.3465 144.241 34.6418 144.096 35.0163C143.952 35.3908 143.786 35.8229 143.598 36.3127C143.41 36.8024 143.204 37.3426 142.98 37.9331C142.757 38.5237 142.529 39.1431 142.298 39.7913H146.566C146.335 39.1431 146.111 38.5237 145.894 37.9331C145.678 37.3426 145.472 36.8024 145.277 36.3127C145.082 35.8229 144.912 35.3908 144.768 35.0163C144.623 34.6418 144.508 34.3465 144.421 34.1304ZM166.916 45.7114C165.948 43.9973 164.901 42.3048 163.774 40.6339C162.648 38.963 161.449 37.3858 160.178 35.9022V45.7114H156.842V30.7383H159.593C160.07 31.2136 160.597 31.797 161.175 32.4884C161.752 33.1798 162.341 33.918 162.94 34.703C163.54 35.488 164.136 36.3019 164.728 37.1445C165.32 37.9871 165.876 38.7974 166.396 39.5752V30.7383H169.754V45.7114H166.916ZM184.233 40.6771C184.233 41.4117 184.15 42.1031 183.984 42.7513C183.818 43.3995 183.529 43.9649 183.117 44.4474C182.705 44.9299 182.149 45.3116 181.449 45.5925C180.748 45.8734 179.864 46.0138 178.795 46.0138C177.813 46.0138 176.968 45.895 176.26 45.6573C175.552 45.4197 174.967 45.1424 174.505 44.8255L175.632 42.2112C176.051 42.456 176.498 42.6721 176.975 42.8593C177.452 43.0466 177.972 43.1402 178.535 43.1402C179.358 43.1402 179.95 42.9386 180.311 42.5352C180.672 42.1319 180.853 41.4549 180.853 40.5043V30.7383H184.233V40.6771Z" fill="#434343"></path><path d="M89.5868 70.4552C87.0794 70.4552 85.1693 69.7598 83.8562 68.369C82.5432 66.9782 81.8867 65.0029 81.8867 62.4432C81.8867 61.1707 82.087 60.0351 82.4876 59.0364C82.8882 58.0377 83.4371 57.1943 84.1344 56.5063C84.8317 55.8183 85.6626 55.2967 86.6269 54.9416C87.5913 54.5865 88.6372 54.4089 89.7648 54.4089C90.4176 54.4089 91.0111 54.457 91.5452 54.5532C92.0793 54.6494 92.5466 54.7603 92.9472 54.8861C93.3478 55.0119 93.6816 55.1413 93.9486 55.2745C94.2157 55.4077 94.4086 55.5112 94.5273 55.5852L93.5258 58.3817C93.051 58.1301 92.4984 57.9156 91.8679 57.738C91.2373 57.5605 90.5215 57.4717 89.7203 57.4717C89.1862 57.4717 88.6632 57.5605 88.1514 57.738C87.6395 57.9156 87.187 58.2004 86.7938 58.5925C86.4007 58.9846 86.0854 59.4914 85.848 60.1128C85.6106 60.7342 85.4919 61.4888 85.4919 62.3766C85.4919 63.0868 85.5698 63.7489 85.7256 64.363C85.8814 64.977 86.1336 65.506 86.4823 65.9498C86.8309 66.3937 87.2871 66.7451 87.8509 67.0041C88.4147 67.263 89.0972 67.3925 89.8983 67.3925C90.4028 67.3925 90.8553 67.3629 91.2559 67.3037C91.6564 67.2445 92.0125 67.1742 92.3241 67.0928C92.6356 67.0115 92.9101 66.919 93.1475 66.8154C93.3849 66.7118 93.6 66.6157 93.7929 66.5269L94.7498 69.3012C94.2602 69.5971 93.5703 69.8634 92.6801 70.1001C91.79 70.3369 90.7588 70.4552 89.5868 70.4552ZM109.22 70.1445C109.056 69.6119 108.875 69.0644 108.674 68.5022C108.474 67.9399 108.278 67.3777 108.085 66.8154H102.076C101.883 67.3777 101.687 67.9399 101.486 68.5022C101.286 69.0644 101.104 69.6119 100.941 70.1445H97.3358C97.9144 68.4874 98.4633 66.956 98.9826 65.5504C99.5019 64.1447 100.01 62.8205 100.507 61.5776C101.004 60.3348 101.494 59.1548 101.976 58.0377C102.458 56.9206 102.959 55.8294 103.478 54.764H106.794C107.298 55.8294 107.795 56.9206 108.285 58.0377C108.775 59.1548 109.268 60.3348 109.765 61.5776C110.262 62.8205 110.77 64.1447 111.289 65.5504C111.809 66.956 112.358 68.4874 112.936 70.1445H109.22ZM105.058 58.2485C104.984 58.4704 104.873 58.7738 104.724 59.1585C104.576 59.5432 104.405 59.987 104.212 60.4901C104.02 60.9932 103.808 61.548 103.578 62.1547C103.348 62.7613 103.115 63.3975 102.877 64.0634H107.261C107.024 63.3975 106.794 62.7613 106.571 62.1547C106.349 61.548 106.137 60.9932 105.937 60.4901C105.737 59.987 105.563 59.5432 105.414 59.1585C105.266 58.7738 105.147 58.4704 105.058 58.2485ZM121.486 54.5865C123.786 54.5865 125.551 54.9897 126.783 55.7961C128.014 56.6024 128.63 57.923 128.63 59.7577C128.63 61.6072 128.007 62.9426 126.761 63.7637C125.514 64.5849 123.734 64.9955 121.42 64.9955H120.329V70.1445H116.857V54.986C117.614 54.838 118.415 54.7344 119.261 54.6753C120.107 54.6161 120.848 54.5865 121.486 54.5865ZM121.709 57.5383C121.457 57.5383 121.208 57.5457 120.963 57.5605C120.719 57.5753 120.507 57.5901 120.329 57.6049V62.0437H121.42C122.621 62.0437 123.526 61.8809 124.135 61.5554C124.743 61.2299 125.047 60.6233 125.047 59.7355C125.047 59.3064 124.969 58.9513 124.813 58.6702C124.658 58.3891 124.435 58.1634 124.146 57.9933C123.856 57.8231 123.504 57.7048 123.089 57.6382C122.673 57.5716 122.213 57.5383 121.709 57.5383ZM133.108 54.764H136.579V70.1445H133.108V54.764ZM153.497 54.764V57.7159H148.846V70.1445H145.374V57.7159H140.723V54.764H153.497ZM167.967 70.1445C167.804 69.6119 167.622 69.0644 167.422 68.5022C167.222 67.9399 167.025 67.3777 166.832 66.8154H160.823C160.63 67.3777 160.434 67.9399 160.234 68.5022C160.033 69.0644 159.852 69.6119 159.688 70.1445H156.083C156.662 68.4874 157.211 66.956 157.73 65.5504C158.249 64.1447 158.757 62.8205 159.254 61.5776C159.751 60.3348 160.241 59.1548 160.723 58.0377C161.205 56.9206 161.706 55.8294 162.225 54.764H165.541C166.046 55.8294 166.543 56.9206 167.032 58.0377C167.522 59.1548 168.015 60.3348 168.512 61.5776C169.009 62.8205 169.517 64.1447 170.037 65.5504C170.556 66.956 171.105 68.4874 171.684 70.1445H167.967ZM163.805 58.2485C163.731 58.4704 163.62 58.7738 163.472 59.1585C163.323 59.5432 163.153 59.987 162.96 60.4901C162.767 60.9932 162.555 61.548 162.326 62.1547C162.096 62.7613 161.862 63.3975 161.625 64.0634H166.009C165.771 63.3975 165.541 62.7613 165.319 62.1547C165.096 61.548 164.885 60.9932 164.685 60.4901C164.484 59.987 164.31 59.5432 164.162 59.1585C164.013 58.7738 163.894 58.4704 163.805 58.2485ZM185.909 67.1705V70.1445H175.605V54.764H179.076V67.1705H185.909Z" fill="#434343"></path></svg>