<svg xmlns="http://www.w3.org/2000/svg" width="250" height="100" viewBox="0 0 250 100" fill="none"><path d="M45.0072 28.8083H62.648C69.5049 28.8083 75.0625 34.4151 75.0625 41.3326C75.0625 48.2501 69.5049 53.8569 62.648 53.8569H45.0072V28.8083Z" fill="#434343"></path><path d="M45.0073 57.255L52.4065 57.2623C56.4937 57.266 59.802 60.6109 59.7984 64.7343C59.7947 68.8576 56.4791 72.1971 52.3919 72.1916C48.3065 72.1879 44.9964 68.843 45 64.7196L45.0073 57.255Z" fill="#434343"></path><path d="M171.012 58.5902H166.838L166.773 58.4469C166.647 54.8205 166.949 51.0682 166.778 47.4526C166.636 44.4495 165.703 42.2758 162.355 42.4778C158.933 42.684 157.088 45.0162 156.947 48.3668C156.807 51.6892 157.052 55.1115 156.951 58.4448L156.887 58.5881H152.775L152.712 58.5251V38.7536L152.775 38.6907H156.887L156.949 38.7536V40.3975C157.826 39.8046 158.714 39.227 159.705 38.8383C161.37 38.1825 163.009 38.0218 164.77 38.3715C166.698 38.7558 168.307 39.8329 169.35 41.5223C169.414 41.5375 169.905 40.9534 170.006 40.8556C172.194 38.7232 174.929 37.7547 177.965 38.378C182.752 39.3617 184.35 43.8197 184.503 48.2843C184.619 51.6458 184.411 55.0768 184.503 58.4448L184.438 58.5881H180.326L180.262 58.4448C180.191 55.1332 180.365 51.8043 180.266 48.4928C180.168 45.1986 179.438 42.2411 175.513 42.4778C172.02 42.6884 171.126 45.2985 171.01 48.4103V58.5902H171.012Z" fill="#434343"></path><path d="M134.466 38.6927L134.53 38.836C134.637 42.1519 134.38 45.5677 134.526 48.8727C134.702 52.8487 137.613 55.3068 141.534 54.7987C144.662 54.3926 146.277 52.0105 146.414 48.9574C146.562 45.6263 146.3 42.1823 146.41 38.8382L146.474 38.6949H150.586L150.651 38.8382V59.8626C150.685 67.1089 142.439 69.7017 136.735 67.1198C133.803 65.7908 131.905 63.0265 131.98 59.7171H136.257C136.3 60.8463 136.654 61.8452 137.51 62.59C139.462 64.2903 143.793 64.2121 145.53 62.2143C146.802 60.7508 146.32 58.7161 146.414 56.9289C146.375 56.8855 145.608 57.4653 145.507 57.5283C142.993 59.1373 140.421 59.5477 137.523 58.7486C132.973 57.4913 130.463 53.6261 130.291 48.9595C130.169 45.6154 130.388 42.1932 130.291 38.8404L130.356 38.697H134.468L134.466 38.6927Z" fill="#434343"></path><path d="M89.9871 46.1453V58.5293L89.9249 58.5923H85.8127L85.7505 58.5293V32.9708L85.8921 32.9056H100.906C106.2 33.0403 109.709 38.4907 107.545 43.4613C106.494 45.8738 104.029 47.6935 101.397 47.8521C98.767 48.0106 95.7638 47.7304 93.0095 47.8521C91.9906 47.7435 90.9824 47.2462 90.2938 46.4797C90.1994 46.3754 90.1286 46.1713 89.9871 46.1453ZM89.9871 43.6046H101.193C102.512 43.6046 103.87 42.0846 103.971 40.7969C104.136 38.7014 102.757 37.3094 100.74 37.1944C98.2393 37.051 95.5836 37.3507 93.091 37.1944C92.0442 37.1292 90.991 36.5559 90.296 35.7764C90.2016 35.67 90.1308 35.468 89.9892 35.442V43.6003L89.9871 43.6046Z" fill="#434343"></path><path d="M190.904 51.0573L190.848 51.155C192.566 55.4025 198.615 56.0713 201.595 52.8076C201.666 52.7294 201.88 52.3798 201.959 52.3928L204.982 55.4416C203.285 57.485 200.645 58.8291 198.017 59.0919C191.5 59.7433 185.878 54.8835 186.193 48.1215C186.508 41.3616 192.315 37.403 198.71 38.3258C204.857 39.214 206.569 44.8773 205.844 50.4471C205.818 50.6382 205.788 50.8988 205.707 51.0573H190.904ZM201.655 46.7686C201.653 44.7014 200.471 43.1553 198.489 42.6688C195.286 41.8806 191.667 43.4745 190.676 46.7686H201.655Z" fill="#434343"></path><path d="M124.289 40.3996V38.6928H128.524V58.5903H124.289V57.2157L122.959 58.0126C115.432 61.6434 107.53 56.0388 108.212 47.622C108.815 40.1868 116.327 35.9329 122.844 39.4681L124.287 40.3996H124.289ZM117.785 42.4951C110.625 43.1032 110.571 54.4058 117.773 54.8444C121.906 55.0963 124.54 52.2669 124.289 48.1237C124.064 44.4039 121.451 42.1846 117.783 42.4951H117.785Z" fill="#434343"></path></svg>